<?xml version="1.0" encoding="utf-8"?>
<!-- Generator: Adobe Illustrator 24.0.0, SVG Export Plug-In . SVG Version: 6.00 Build 0)  -->
<svg version="1.1" id="Layer_1" xmlns="http://www.w3.org/2000/svg" xmlns:xlink="http://www.w3.org/1999/xlink" x="0px" y="0px"
	 viewBox="0 0 252.56 72.49" style="enable-background:new 0 0 252.56 72.49;" xml:space="preserve">
<style type="text/css">
	.st0{fill-rule:evenodd;clip-rule:evenodd;fill:#293E40;}
	.st1{fill-rule:evenodd;clip-rule:evenodd;fill:#81B5A1;}
	.st2{fill:#293E40;}
</style>
<g>
	<path class="st0" d="M72.23,30.51c-2.32,0-4.29,0.82-5.88,2.11v-1.9h-5.37v20.9h5.58V38.27c0.77-1.08,2.7-2.59,5.06-2.59
		c0.84,0,1.61,0.06,2.24,0.34v-5.36C73.34,30.56,72.79,30.51,72.23,30.51"/>
	<path class="st0" d="M23.59,45.25c1.42,1.29,3.61,2.07,5.71,2.07c1.5,0,2.66-0.73,2.66-1.77c0-3.14-10.09-2.03-10.09-8.75
		c0-4.01,3.86-6.51,7.98-6.51c2.7,0,5.67,1.03,7.04,2.11l-2.62,4.05c-1.07-0.78-2.49-1.42-3.99-1.42c-1.54,0-2.83,0.6-2.83,1.68
		c0,2.71,10.09,1.64,10.09,8.88c0,4.01-3.91,6.46-8.28,6.46c-2.88,0-5.92-0.99-8.37-2.8L23.59,45.25z"/>
	<path class="st0" d="M58.61,40.98c0-5.82-4.08-10.68-9.83-10.68c-6.18,0-10.13,5.08-10.13,10.9c0,6.55,4.68,10.86,10.9,10.86
		c3.22,0,6.52-1.34,8.54-3.75l-3.18-3.19c-0.99,1.08-2.88,2.41-5.24,2.41c-2.96,0-5.32-2.03-5.62-4.95h14.42
		C58.56,42.1,58.61,41.54,58.61,40.98z M44.31,38.48c0.26-1.9,2.15-3.66,4.46-3.66c2.27,0,3.95,1.81,4.12,3.66H44.31z"/>
	<polygon class="st0" points="87.17,43.48 92.88,30.73 98.67,30.73 89.1,51.63 85.24,51.63 75.67,30.73 81.46,30.73 	"/>
	<g>
		<path class="st0" d="M103.36,20.92c2.02,0,3.65,1.55,3.65,3.58c0,2.03-1.63,3.58-3.65,3.58c-2.02,0-3.65-1.55-3.65-3.58
			C99.71,22.47,101.34,20.92,103.36,20.92"/>
		<rect x="100.57" y="30.73" class="st0" width="5.58" height="20.9"/>
	</g>
	<path class="st0" d="M129.22,47.36c-2.45,3.27-5.54,4.7-9.44,4.7c-6.44,0-11.16-4.83-11.16-10.86c0-6.08,4.85-10.9,11.2-10.9
		c3.61,0,6.82,1.68,8.76,4.18l-3.95,3.49c-1.12-1.47-2.79-2.5-4.81-2.5c-3.22,0-5.62,2.54-5.62,5.73c0,3.27,2.36,5.69,5.75,5.69
		c2.28,0,4.08-1.38,4.98-2.76L129.22,47.36z"/>
	<path class="st0" d="M149.48,48.31c-2.02,2.41-5.32,3.75-8.54,3.75c-6.22,0-10.9-4.31-10.9-10.86c0-5.82,3.95-10.9,10.13-10.9
		c5.75,0,9.83,4.87,9.83,10.68c0,0.56-0.04,1.12-0.13,1.59h-14.42c0.3,2.93,2.66,4.95,5.62,4.95c2.36,0,4.25-1.34,5.24-2.41
		L149.48,48.31z M144.29,38.48c-0.17-1.85-1.85-3.66-4.12-3.66c-2.32,0-4.21,1.77-4.46,3.66H144.29z"/>
	<path class="st0" d="M152.22,51.63v-20.9h5.36v1.68c1.59-1.29,3.56-2.11,5.88-2.11c2.88,0,5.49,1.29,7.21,3.36
		c1.37,1.64,2.15,3.75,2.15,7.32v10.64h-5.58V40.55c0-2.07-0.47-3.14-1.24-3.92c-0.73-0.73-1.85-1.16-3.13-1.16
		c-2.36,0-4.29,1.51-5.06,2.59v13.57H152.22z"/>
	<path class="st1" d="M187.18,30.3c-6.67-0.04-12.18,5.42-12.24,12.11c-0.03,3.54,1.45,6.74,3.82,8.99c0.86,0.82,2.2,0.9,3.14,0.17
		c1.38-1.08,3.16-1.73,5.21-1.73c2.04,0,3.82,0.64,5.21,1.73c0.95,0.74,2.29,0.64,3.16-0.18c2.34-2.23,3.8-5.38,3.8-8.87
		C199.28,35.79,193.87,30.34,187.18,30.3 M187.11,48.62c-3.61,0-6.08-2.72-6.08-6.08c0-3.36,2.47-6.13,6.08-6.13
		c3.61,0,6.08,2.76,6.08,6.13C193.2,45.9,190.73,48.62,187.11,48.62"/>
	<g>
		<polygon class="st0" points="210.32,51.63 206.17,51.63 197.88,30.73 203.45,30.73 207.99,42.67 212.45,30.73 217.1,30.73 
			221.52,42.67 226.1,30.73 231.67,30.73 223.39,51.63 219.23,51.63 214.78,39.73 		"/>
	</g>
	<polygon class="st2" points="228.61,48.97 228.61,49.43 227.91,49.43 227.91,51.63 227.4,51.63 227.4,49.43 226.7,49.43 
		226.7,48.97 	"/>
	<polygon class="st2" points="230.35,50.56 231.31,48.97 231.67,48.97 231.67,51.63 231.16,51.63 231.16,50.15 230.53,51.19 
		230.17,51.19 229.53,50.15 229.53,51.63 229.02,51.63 229.02,48.97 229.38,48.97 	"/>
</g>
</svg>
