<?xml version="1.0" encoding="utf-8"?>
<!-- Generator: Adobe Illustrator 24.1.3, SVG Export Plug-In . SVG Version: 6.00 Build 0)  -->
<svg version="1.1"
	 id="svg3769" xmlns:cc="http://creativecommons.org/ns#" xmlns:dc="http://purl.org/dc/elements/1.1/" xmlns:inkscape="http://www.inkscape.org/namespaces/inkscape" xmlns:rdf="http://www.w3.org/1999/02/22-rdf-syntax-ns#" xmlns:sodipodi="http://sodipodi.sourceforge.net/DTD/sodipodi-0.dtd" xmlns:svg="http://www.w3.org/2000/svg"
	 xmlns="http://www.w3.org/2000/svg" xmlns:xlink="http://www.w3.org/1999/xlink" x="0px" y="0px" viewBox="0 0 118.7 20.1"
	 style="enable-background:new 0 0 118.7 20.1;" xml:space="preserve">
<style type="text/css">
	.st0{fill:#FEFEFE;}
	.st1{fill:#F16B24;}
</style>
<g>
	<path class="st0" d="M16.6,3c0.4,0.5,0.7,1,1,1.5c0.1,0.2,0.3,0.3,0.5,0.4c1.1,0.3,2.1,0.6,3.2,1c0.9,0.3,1.3,0.8,1.3,1.7
		c0,1.7,0,3.5,0,5.2c0,0.9-0.4,1.4-1.3,1.7c-1.1,0.3-2.2,0.7-3.2,1c-0.2,0.1-0.3,0.1-0.4,0.3c-0.3,0.4-0.6,0.8-0.9,1.2
		c-0.1,0.1-0.2,0.1-0.1,0.3c0.1,0,0.3,0,0.4,0c1.5,0,3,0,4.5,0c2.2,0,3.9-1.7,3.9-3.9c0-2.2,0-4.4,0-6.5c0-2.3-1.9-3.9-3.9-3.9
		C20,3,18.5,3,17,3C16.9,3,16.8,3,16.6,3z M11.4,3c-0.1,0-0.1,0-0.2,0c-1.7,0-3.3,0-5,0C6.1,3,5.9,3,5.7,3C3.8,3.4,2.5,4.9,2.5,6.8
		c0,2.2,0,4.4,0,6.5c0,0.3,0,0.6,0.1,0.9c0.4,1.8,1.9,3,3.8,3c1.5,0,3.1,0,4.6,0c0.1,0,0.2,0,0.4,0c-0.4-0.6-0.8-1.1-1.2-1.7
		c-0.1-0.1-0.2-0.1-0.3-0.2c-1.1-0.3-2.2-0.7-3.3-1c-0.8-0.2-1.2-0.8-1.2-1.6c0-1.8,0-3.6,0-5.4c0-0.8,0.4-1.3,1.2-1.6
		c1.1-0.3,2.2-0.7,3.3-1c0.1,0,0.3-0.1,0.4-0.2C10.6,4.1,11,3.5,11.4,3z M38,16.7c0-0.2-0.1-0.3-0.1-0.4c-0.5-1.9-1-3.9-1.5-5.8
		c-0.6-2.2-1.2-4.4-1.8-6.6c-0.1-0.3-0.1-0.3-0.5-0.3c-0.5,0-1,0-1.5,0c-0.3,0-0.4,0.1-0.4,0.3c-1,3.8-2,7.7-3.1,11.5
		c-0.1,0.4-0.3,0.8-0.3,1.3c0.5,0,1,0,1.4,0c0.2,0,0.3-0.1,0.4-0.3c0.2-1,0.5-1.9,0.8-2.9c0.1-0.3,0.1-0.4,0.5-0.3
		c0.9,0.1,1.8,0,2.8,0c0.7,0,0.7,0,0.8,0.7c0.2,0.8,0.5,1.7,0.7,2.5c0.1,0.2,0.1,0.3,0.4,0.3C37,16.7,37.5,16.7,38,16.7z M63.6,7.8
		c0-0.2,0-0.5,0-0.7c0-1.1,0-2.2,0-3.4c0-0.2-0.1-0.3-0.3-0.3c-0.4,0-0.8,0-1.3,0c-0.1,0-0.2,0-0.2,0.2c0,0.1,0,0.2,0,0.2
		c0,4.1,0,8.2,0,12.3c0,0.1,0,0.1,0,0.2c0,0.2,0,0.3,0.2,0.3c0.3,0,0.7,0,1,0c0.5,0,0.5,0,0.5-0.5c0,0,0-0.1,0.1-0.1
		c0.1,0,0.2,0.1,0.3,0.2c1,0.7,2,0.8,3.1,0.3c1.1-0.5,1.7-1.5,1.7-2.7c0-1.3,0-2.6,0-3.9c0-0.2,0-0.3,0-0.5
		c-0.4-2.3-3.1-3.3-4.9-1.8C63.8,7.8,63.7,7.8,63.6,7.8z M114.1,16.1c0.1,0.1,0.1,0.3,0.1,0.4c0,0.2,0.1,0.3,0.3,0.2
		c0.4,0,0.8,0,1.2,0c0.3,0,0.3,0,0.3-0.3c0,0,0-0.1,0-0.1c0-4.1,0-8.2,0-12.3c0-0.1,0-0.2,0-0.2c0-0.2-0.1-0.2-0.2-0.2
		c-0.4,0-0.8,0-1.2,0c-0.3,0-0.3,0-0.3,0.3c0,1.2,0,2.5,0,3.7c0,0.1,0,0.2,0,0.3c-0.1,0-0.2-0.1-0.3-0.2c-0.5-0.4-1.2-0.6-1.8-0.6
		c-1.9,0-3,1.6-3,3c0,1.3,0,2.6,0,3.9c0,2.1,2.2,3.5,4.1,2.7C113.5,16.5,113.8,16.3,114.1,16.1z M47.6,7.9c-0.1-0.1,0-0.2,0-0.3
		c0-1.2,0-2.5,0-3.7c0-0.2,0-0.3-0.3-0.3c-0.4,0-0.8,0-1.2,0c-0.2,0-0.3,0.1-0.3,0.3c0,0.1,0,0.1,0,0.2c0,4.1,0,8.2,0,12.3
		c0,0.1,0,0.1,0,0.2c0,0.2,0,0.3,0.3,0.3c0.3,0,0.6,0,0.9,0c0.5,0,0.5,0,0.6-0.5c0,0,0-0.1,0.1,0c0.1,0.1,0.2,0.1,0.3,0.2
		c1,0.7,2,0.8,3.1,0.3c1.1-0.5,1.6-1.4,1.7-2.6c0-1.3,0-2.7,0-4c0-1.2-0.6-2.1-1.6-2.6c-1.1-0.5-2.1-0.4-3.1,0.2
		C47.8,7.7,47.7,7.8,47.6,7.9z M82.8,10.2c0-0.9,0-1.8,0-2.7c0-1.5,1.4-2.6,2.9-2.2c0.9,0.2,1.5,1,1.6,1.9c0,0.2,0.1,0.3,0.3,0.3
		c0.4,0,0.9,0,1.3,0c0.1,0,0.2,0,0.2-0.2c0-1.1-0.4-2-1.2-2.7c-1.2-1.1-2.9-1.5-4.4-0.8C82,4.4,81,5.9,81,7.5c0,1.8,0,3.7,0,5.5
		c0,0.5,0.1,1,0.3,1.5c0.9,2.1,3.3,3.1,5.4,2.1c1.4-0.7,2.2-1.8,2.3-3.4c0-0.2,0-0.3-0.3-0.3c-0.4,0-0.8,0-1.1,0
		c-0.3,0-0.3,0-0.4,0.3c-0.2,1.3-1.5,2.3-2.8,1.9c-1-0.3-1.6-1.1-1.7-2.2C82.8,12,82.8,11.1,82.8,10.2z M69.9,9.9c0.5,0,0.9,0,1.4,0
		c0.2,0,0.3-0.1,0.4-0.3c0.3-0.7,0.9-1.1,1.6-1.1c0.7,0,1.4,0.5,1.6,1.3c0.1,0.3,0,0.6,0,0.9c0,0.2-0.1,0.3-0.3,0.3
		c-0.8,0-1.5,0-2.3,0c-1.6,0-3.3,1.6-2.8,3.6c0.6,2.5,3.4,2.8,4.9,1.8c0.1-0.1,0.2-0.2,0.4-0.3c0,0.1,0,0.3,0,0.4
		c0,0.1,0,0.2,0.2,0.2c0.5,0,0.9,0,1.4,0c0.1,0,0.2-0.1,0.2-0.2c0-0.1,0-0.2,0-0.2c0-1.9,0-3.8,0-5.6c0-0.3,0-0.6-0.1-0.9
		c-0.3-1.6-1.8-2.8-3.6-2.7C71.5,7.2,70.2,8.3,69.9,9.9z M58.8,16c0,0.2,0,0.2,0,0.3c0,0.3,0,0.3,0.4,0.3c0.4,0,0.7,0,1.1,0
		c0.3,0,0.3,0,0.3-0.3c0-2,0-3.9,0-5.9c0-2.4-2.4-4-4.6-3.2c-1.1,0.4-1.8,1.2-2.1,2.3c-0.1,0.3-0.1,0.3,0.2,0.3c0.3,0,0.7,0,1,0
		c0.3,0,0.4,0,0.5-0.3c0.3-0.7,1.1-1.2,1.8-1.1c0.8,0.2,1.4,0.8,1.4,1.7c0,0.2,0,0.3,0,0.5c0,0.2-0.1,0.3-0.3,0.3
		c-0.7,0-1.5,0-2.2,0c-1.8,0-3.4,1.8-2.8,3.9c0.5,1.5,1.9,2.3,3.7,2C57.9,16.7,58.3,16.4,58.8,16z M106.1,16.1c0.1,0.1,0,0.2,0,0.3
		c0,0.2,0.1,0.2,0.3,0.2c0.4,0,0.8,0,1.3,0c0.2,0,0.3-0.1,0.3-0.3c0-0.1,0-0.2,0-0.2c0-2.8,0-5.6,0-8.4c0-0.2,0-0.3,0-0.5
		c0-0.3,0-0.3-0.3-0.3c-0.4,0-0.7,0-1.1,0c-0.4,0-0.4,0-0.4,0.4c0,0.1,0,0.2,0,0.3c0,2,0,4,0,5.9c0,1.2-1.2,2-2.3,1.6
		c-0.7-0.2-1.1-0.9-1.1-1.6c0-1.7,0-3.5,0-5.2c0-0.3,0-0.7,0-1c0-0.3,0-0.3-0.3-0.3c-0.4,0-0.7,0-1.1,0C101,7,101,7,101,7.4
		c0,2.1,0,4.2,0,6.3c0,0.1,0,0.2,0,0.3c0.1,1.2,0.7,2.1,1.8,2.6c1.1,0.5,2.2,0.4,3.1-0.4C105.9,16.2,106,16.1,106.1,16.1z
		 M92.9,11.9c0,0.6,0,1.1,0,1.7c0,0.2,0,0.3,0,0.5c0.3,1.7,1.8,3,3.8,2.8c1.7-0.2,3.1-1.7,3-3.4c0-1,0-2,0-3c0-0.3,0-0.6-0.1-0.9
		c-0.4-1.3-1.7-2.6-3.7-2.5c-1.7,0.1-3.1,1.6-3.1,3.3C92.9,10.9,92.9,11.4,92.9,11.9z M38.8,10.1c0,1.7,0,3.5,0,5.2
		c0,0.4,0,0.7,0,1.1c0,0.3,0,0.3,0.3,0.3c0.4,0,0.8,0,1.2,0c0.2,0,0.3-0.1,0.3-0.3c0-0.1,0-0.1,0-0.2c0-4.1,0-8.2,0-12.2
		c0-0.1,0-0.2,0-0.3c0-0.1,0-0.2-0.2-0.2c-0.5,0-1,0-1.5,0c-0.1,0-0.2,0-0.2,0.2c0,0.1,0,0.2,0,0.3C38.8,6,38.8,8,38.8,10.1z
		 M91.6,10.1c0-2,0-4.1,0-6.1c0-0.1,0-0.2,0-0.3c0-0.2-0.1-0.2-0.2-0.2c-0.4,0-0.9,0-1.3,0c-0.2,0-0.3,0.1-0.2,0.2
		c0,0.1,0,0.1,0,0.2c0,4.1,0,8.2,0,12.3c0,0.1,0,0.2,0,0.2c0,0.2,0.1,0.2,0.2,0.2c0.4,0,0.9,0,1.3,0c0.2,0,0.2-0.1,0.2-0.2
		c0-0.1,0-0.2,0-0.3C91.6,14.2,91.6,12.1,91.6,10.1z M44,11.9c0-1.5,0-3,0-4.5C44,7,44,7,43.7,7c-0.4,0-0.7,0-1.1,0
		c-0.4,0-0.4,0-0.4,0.4c0,2,0,4.1,0,6.1c0,0.9,0,1.9,0,2.8c0,0.2,0,0.3,0.3,0.3c0.4,0,0.7,0,1.1,0c0.4,0,0.4,0,0.4-0.4
		C44,14.8,44,13.3,44,11.9z M14,9.2c-0.8,0-1.6,0-2.4,0c-0.4,0-0.8,0-1.2,0c-0.1,0-0.2,0-0.2,0.2c0,0.5,0,0.9,0,1.4
		c0,0.1,0,0.2,0.2,0.2c0.1,0,0.2,0,0.3,0c1.8,0,3.5,0,5.3,0c0.6,0,1.1,0,1.7,0c0.2,0,0.3-0.1,0.3-0.3c0-0.4,0-0.7,0-1.1
		c0-0.4,0-0.4-0.4-0.4C16.3,9.2,15.2,9.2,14,9.2z M43.2,3.5c-0.2,0-0.4,0-0.7,0c-0.2,0-0.2,0-0.2,0.2c0,0.4,0,0.9,0,1.3
		c0,0.2,0,0.2,0.2,0.2c0.4,0,0.9,0,1.3,0c0.2,0,0.2,0,0.2-0.2c0-0.4,0-0.9,0-1.3c0-0.2,0-0.2-0.2-0.2C43.6,3.5,43.4,3.5,43.2,3.5z"
		/>
	<path class="st1" d="M16.6,3c0.2,0,0.3,0,0.4,0c1.5,0,3.1,0,4.6,0c2,0,3.9,1.6,3.9,3.9c0,2.2,0,4.4,0,6.5c0,2.2-1.7,3.9-3.9,3.9
		c-1.5,0-3,0-4.5,0c-0.1,0-0.3,0-0.4,0c-0.1-0.1,0-0.2,0.1-0.3c0.3-0.4,0.6-0.8,0.9-1.2c0.1-0.2,0.2-0.3,0.4-0.3
		c1.1-0.3,2.2-0.7,3.2-1c0.9-0.3,1.3-0.8,1.3-1.7c0-1.7,0-3.5,0-5.2c0-0.9-0.4-1.4-1.3-1.7c-1.1-0.3-2.1-0.7-3.2-1
		c-0.2-0.1-0.4-0.2-0.5-0.4C17.3,4,16.9,3.5,16.6,3z"/>
	<path class="st1" d="M11.4,3c-0.4,0.6-0.8,1.1-1.1,1.6C10.2,4.7,10,4.8,9.9,4.8c-1.1,0.3-2.2,0.7-3.3,1C5.8,6,5.4,6.6,5.4,7.4
		c0,1.8,0,3.6,0,5.4c0,0.8,0.4,1.4,1.2,1.6c1.1,0.3,2.2,0.7,3.3,1c0.1,0,0.2,0.1,0.3,0.2c0.4,0.5,0.8,1.1,1.2,1.7
		c-0.2,0-0.3,0-0.4,0c-1.5,0-3.1,0-4.6,0c-1.9,0-3.4-1.2-3.8-3c-0.1-0.3-0.1-0.6-0.1-0.9c0-2.2,0-4.4,0-6.5c0-1.9,1.3-3.4,3.2-3.8
		c0.2,0,0.4,0,0.6,0c1.7,0,3.3,0,5,0C11.3,3,11.3,3,11.4,3z"/>
	<path class="st1" d="M38,16.7c-0.5,0-1,0-1.5,0c-0.2,0-0.3-0.1-0.4-0.3c-0.2-0.9-0.5-1.7-0.7-2.5c-0.2-0.7-0.2-0.7-0.8-0.7
		c-0.9,0-1.8,0-2.8,0c-0.4,0-0.4,0-0.5,0.3c-0.3,1-0.5,1.9-0.8,2.9c-0.1,0.2-0.1,0.3-0.4,0.3c-0.5,0-0.9,0-1.4,0
		c0.1-0.5,0.2-0.9,0.3-1.3c1-3.8,2-7.7,3.1-11.5c0.1-0.2,0.2-0.3,0.4-0.3c0.5,0,1,0,1.5,0c0.4,0,0.4,0,0.5,0.3
		c0.6,2.2,1.2,4.4,1.8,6.6c0.5,1.9,1,3.9,1.5,5.8C37.9,16.4,38,16.5,38,16.7z M34.9,11.4c-0.5-1.8-0.9-3.5-1.5-5.2
		C32.9,8,32.5,9.7,32,11.4C33,11.4,33.9,11.4,34.9,11.4z"/>
	<path class="st1" d="M63.6,7.8c0.1,0,0.2-0.1,0.2-0.1c1.8-1.5,4.5-0.5,4.9,1.8c0,0.2,0,0.3,0,0.5c0,1.3,0,2.6,0,3.9
		c0,1.2-0.6,2.2-1.7,2.7c-1.1,0.5-2.1,0.4-3.1-0.3c-0.1-0.1-0.2-0.2-0.3-0.2c-0.1,0-0.1,0.1-0.1,0.1c0,0.5,0,0.5-0.5,0.5
		c-0.3,0-0.7,0-1,0c-0.2,0-0.3-0.1-0.2-0.3c0-0.1,0-0.1,0-0.2c0-4.1,0-8.2,0-12.3c0-0.1,0-0.2,0-0.2c0-0.2,0.1-0.2,0.2-0.2
		c0.4,0,0.8,0,1.3,0c0.2,0,0.3,0.1,0.3,0.3c0,1.1,0,2.2,0,3.4C63.6,7.4,63.6,7.6,63.6,7.8z M67,12c0-0.5,0-1.1,0-1.6
		c0-0.2,0-0.3,0-0.5c-0.2-0.8-1-1.3-1.8-1.3c-0.8,0.1-1.5,0.8-1.5,1.7c0,1.1,0,2.2,0,3.3c0,1,0.8,1.7,1.7,1.7c1,0,1.7-0.8,1.7-1.8
		C67,13,67,12.5,67,12z"/>
	<path class="st1" d="M114.1,16.1c-0.3,0.2-0.6,0.5-0.9,0.6c-2,0.8-4.1-0.6-4.1-2.7c0-1.3,0-2.6,0-3.9c0-1.4,1.1-2.9,3-3
		c0.7,0,1.3,0.2,1.8,0.6c0.1,0.1,0.1,0.2,0.3,0.2c0.1-0.1,0-0.2,0-0.3c0-1.2,0-2.5,0-3.7c0-0.3,0-0.3,0.3-0.3c0.4,0,0.8,0,1.2,0
		c0.1,0,0.2,0,0.2,0.2c0,0.1,0,0.2,0,0.2c0,4.1,0,8.2,0,12.3c0,0,0,0.1,0,0.1c0,0.3,0,0.3-0.3,0.3c-0.4,0-0.8,0-1.2,0
		c-0.2,0-0.3-0.1-0.3-0.2C114.2,16.3,114.3,16.2,114.1,16.1z M114.2,11.9c0-0.5,0-1,0-1.5c0-0.2,0-0.4-0.1-0.6
		c-0.2-0.8-1-1.3-1.8-1.2c-0.8,0.1-1.4,0.8-1.5,1.5c0,1.2,0,2.4,0,3.6c0,1,1.1,1.7,2,1.5c0.8-0.2,1.3-0.8,1.3-1.7
		C114.2,13,114.2,12.5,114.2,11.9z"/>
	<path class="st1" d="M47.6,7.9c0.1-0.1,0.2-0.2,0.4-0.3c1-0.6,2-0.7,3.1-0.2c1.1,0.5,1.6,1.4,1.6,2.6c0,1.3,0,2.7,0,4
		c0,1.2-0.6,2.1-1.7,2.6c-1.1,0.5-2.1,0.4-3.1-0.3c-0.1-0.1-0.2-0.2-0.3-0.2c-0.1,0-0.1,0-0.1,0c0,0.5,0,0.5-0.6,0.5
		c-0.3,0-0.6,0-0.9,0c-0.2,0-0.3-0.1-0.3-0.3c0-0.1,0-0.1,0-0.2c0-4.1,0-8.2,0-12.3c0-0.1,0-0.1,0-0.2c0-0.2,0.1-0.3,0.3-0.3
		c0.4,0,0.8,0,1.2,0c0.2,0,0.3,0.1,0.3,0.3c0,1.2,0,2.5,0,3.7C47.5,7.6,47.5,7.7,47.6,7.9z M47.5,12c0,0.5,0,1.1,0,1.6
		c0,1,0.7,1.7,1.7,1.7c0.9,0,1.7-0.7,1.7-1.7c0-1.1,0-2.2,0-3.2c0-0.5-0.2-1-0.6-1.3c-0.5-0.4-1.2-0.5-1.8-0.2c-0.6,0.3-1,0.8-1,1.5
		C47.5,10.9,47.5,11.4,47.5,12z"/>
	<path class="st1" d="M82.8,10.2c0,0.9,0,1.8,0,2.6c0,1.1,0.6,1.9,1.7,2.2c1.3,0.4,2.7-0.5,2.8-1.9c0-0.3,0-0.3,0.4-0.3
		c0.4,0,0.8,0,1.1,0c0.2,0,0.3,0.1,0.3,0.3c-0.1,1.6-0.9,2.7-2.3,3.4c-2.1,1-4.5,0-5.4-2.1C81.1,13.9,81,13.5,81,13
		c0-1.8,0-3.7,0-5.5c0-1.6,1-3,2.4-3.6c1.5-0.6,3.2-0.3,4.4,0.8C88.6,5.4,89,6.3,89,7.4c0,0.2,0,0.2-0.2,0.2c-0.4,0-0.9,0-1.3,0
		c-0.2,0-0.3-0.1-0.3-0.3c-0.1-0.9-0.7-1.7-1.6-1.9c-1.5-0.4-2.9,0.6-2.9,2.2C82.8,8.4,82.8,9.3,82.8,10.2z"/>
	<path class="st1" d="M69.9,9.9c0.3-1.6,1.5-2.7,3.1-2.8c1.8-0.1,3.3,1.1,3.6,2.7c0.1,0.3,0.1,0.6,0.1,0.9c0,1.9,0,3.8,0,5.6
		c0,0.1,0,0.2,0,0.2c0,0.1-0.1,0.2-0.2,0.2c-0.5,0-0.9,0-1.4,0c-0.2,0-0.2-0.1-0.2-0.2c0-0.1,0-0.2,0-0.4c-0.2,0-0.3,0.2-0.4,0.3
		c-1.5,1.1-4.4,0.7-4.9-1.8c-0.5-2.1,1.2-3.6,2.8-3.6c0.8,0,1.5,0,2.3,0c0.2,0,0.3-0.1,0.3-0.3c0-0.3,0-0.6,0-0.9
		c-0.2-0.7-0.8-1.2-1.6-1.3c-0.7,0-1.4,0.4-1.6,1.1c-0.1,0.2-0.2,0.3-0.4,0.3C70.9,9.9,70.4,9.9,69.9,9.9z M73.7,12.3
		C73.7,12.3,73.7,12.3,73.7,12.3c-0.4,0-0.7,0-1.1,0c-0.6,0.1-1,0.4-1.2,1c-0.2,0.6-0.1,1.1,0.3,1.5c1,1.1,2.7,0.6,3.1-0.7
		c0.2-0.5,0.1-1.1,0.1-1.6c0-0.1-0.1-0.1-0.2-0.1C74.4,12.3,74.1,12.3,73.7,12.3z"/>
	<path class="st1" d="M58.8,16c-0.5,0.4-1,0.7-1.5,0.8c-1.8,0.3-3.2-0.5-3.7-2c-0.7-2.1,1-3.9,2.8-3.9c0.7,0,1.5,0,2.2,0
		c0.2,0,0.3-0.1,0.3-0.3c0-0.2,0-0.3,0-0.5c0-0.8-0.6-1.5-1.4-1.7c-0.7-0.1-1.6,0.3-1.8,1.1c-0.1,0.3-0.2,0.3-0.5,0.3
		c-0.3,0-0.7,0-1,0c-0.3,0-0.3,0-0.2-0.3c0.3-1.1,1-1.9,2.1-2.3c2.2-0.8,4.6,0.8,4.6,3.2c0,2,0,3.9,0,5.9c0,0.3,0,0.3-0.3,0.3
		c-0.4,0-0.7,0-1.1,0c-0.3,0-0.3,0-0.4-0.3C58.9,16.2,58.8,16.2,58.8,16z M58.8,13.1c0-0.2,0-0.4,0-0.6c0-0.2-0.1-0.2-0.3-0.2
		c-0.6,0-1.3,0-1.9,0c-0.7,0-1.2,0.5-1.4,1.1c-0.2,0.6,0.1,1.3,0.6,1.7c1.1,0.8,2.5,0.1,2.8-1C58.9,13.7,58.8,13.4,58.8,13.1z"/>
	<path class="st1" d="M106.1,16.1c-0.1,0-0.2,0.1-0.2,0.1c-1,0.7-2,0.9-3.1,0.4c-1.1-0.5-1.7-1.4-1.8-2.6c0-0.1,0-0.2,0-0.3
		c0-2.1,0-4.2,0-6.3c0-0.4,0-0.4,0.4-0.4c0.4,0,0.7,0,1.1,0c0.3,0,0.3,0,0.3,0.3c0,0.3,0,0.7,0,1c0,1.7,0,3.5,0,5.2
		c0,0.8,0.4,1.4,1.1,1.6c1.1,0.4,2.3-0.4,2.3-1.6c0-2,0-4,0-5.9c0-0.1,0-0.2,0-0.3c0-0.4,0-0.4,0.4-0.4c0.4,0,0.7,0,1.1,0
		c0.3,0,0.3,0,0.3,0.3c0,0.2,0,0.3,0,0.5c0,2.8,0,5.6,0,8.4c0,0.1,0,0.2,0,0.2c0,0.2,0,0.3-0.3,0.3c-0.4,0-0.8,0-1.3,0
		c-0.2,0-0.3,0-0.3-0.2C106.1,16.3,106.1,16.2,106.1,16.1z"/>
	<path class="st1" d="M92.9,11.9c0-0.5,0-1.1,0-1.6c0-1.7,1.4-3.1,3.1-3.3c1.9-0.2,3.3,1.1,3.7,2.5c0.1,0.3,0.1,0.6,0.1,0.9
		c0,1,0,2,0,3c0,1.7-1.3,3.2-3,3.4c-2,0.2-3.5-1.1-3.8-2.8c0-0.2,0-0.3,0-0.5C92.9,13,92.9,12.5,92.9,11.9z M98,12c0-0.5,0-1,0-1.5
		c0-0.9-0.7-1.6-1.7-1.7c-0.9,0-1.7,0.7-1.7,1.7c0,1,0,2,0,3c0,0.9,0.7,1.7,1.7,1.7c1,0,1.7-0.9,1.7-1.7C98,13,98,12.5,98,12z"/>
	<path class="st1" d="M38.8,10.1c0-2,0-4.1,0-6.1c0-0.1,0-0.2,0-0.3c0-0.1,0.1-0.2,0.2-0.2c0.5,0,1,0,1.5,0c0.1,0,0.2,0.1,0.2,0.2
		c0,0.1,0,0.2,0,0.3c0,4.1,0,8.2,0,12.2c0,0.1,0,0.1,0,0.2c0,0.2-0.1,0.3-0.3,0.3c-0.4,0-0.8,0-1.2,0c-0.3,0-0.3,0-0.3-0.3
		c0-0.4,0-0.7,0-1.1C38.8,13.6,38.8,11.8,38.8,10.1z"/>
	<path class="st1" d="M91.6,10.1c0,2,0,4,0,6.1c0,0.1,0,0.2,0,0.3c0,0.1,0,0.2-0.2,0.2c-0.4,0-0.9,0-1.3,0c-0.2,0-0.2-0.1-0.2-0.2
		c0-0.1,0-0.2,0-0.2c0-4.1,0-8.2,0-12.3c0-0.1,0-0.1,0-0.2c0-0.2,0-0.3,0.2-0.2c0.4,0,0.9,0,1.3,0c0.1,0,0.2,0,0.2,0.2
		c0,0.1,0,0.2,0,0.3C91.6,6,91.6,8.1,91.6,10.1z"/>
	<path class="st1" d="M44,11.9c0,1.5,0,3,0,4.5c0,0.4,0,0.4-0.4,0.4c-0.4,0-0.7,0-1.1,0c-0.2,0-0.3-0.1-0.3-0.3c0-0.9,0-1.9,0-2.8
		c0-2,0-4.1,0-6.1c0-0.4,0-0.4,0.4-0.4c0.4,0,0.7,0,1.1,0C44,7,44,7,44,7.4C44,8.9,44,10.4,44,11.9z"/>
	<path class="st1" d="M14,9.2c1.1,0,2.3,0,3.4,0c0.4,0,0.4,0,0.4,0.4c0,0.4,0,0.7,0,1.1c0,0.2-0.1,0.3-0.3,0.3c-0.6,0-1.1,0-1.7,0
		c-1.8,0-3.5,0-5.3,0c-0.1,0-0.2,0-0.3,0c-0.1,0-0.2-0.1-0.2-0.2c0-0.5,0-0.9,0-1.4c0-0.2,0.1-0.2,0.2-0.2c0.4,0,0.8,0,1.2,0
		C12.4,9.2,13.2,9.2,14,9.2z"/>
	<path class="st1" d="M43.2,3.5c0.2,0,0.4,0,0.6,0c0.2,0,0.2,0.1,0.2,0.2c0,0.4,0,0.9,0,1.3c0,0.2-0.1,0.2-0.2,0.2
		c-0.4,0-0.9,0-1.3,0c-0.2,0-0.2-0.1-0.2-0.2c0-0.4,0-0.9,0-1.3c0-0.2,0.1-0.2,0.2-0.2C42.8,3.5,43,3.5,43.2,3.5z"/>
	<path class="st0" d="M34.9,11.4c-1,0-1.9,0-2.9,0c0.5-1.7,0.9-3.5,1.4-5.2C34,7.9,34.4,9.7,34.9,11.4z"/>
	<path class="st0" d="M67,12c0,0.5,0,1,0,1.5c0,0.9-0.7,1.8-1.7,1.8c-0.9,0-1.7-0.7-1.7-1.7c0-1.1,0-2.2,0-3.3
		c0-0.9,0.7-1.6,1.5-1.7c0.9-0.1,1.6,0.4,1.8,1.3c0,0.2,0,0.3,0,0.5C67,10.9,67,11.4,67,12z"/>
	<path class="st0" d="M114.2,11.9c0,0.5,0,1.1,0,1.6c0,0.8-0.5,1.5-1.3,1.7c-1,0.2-2-0.5-2-1.5c0-1.2,0-2.4,0-3.6
		c0-0.8,0.7-1.4,1.5-1.5c0.9-0.1,1.6,0.4,1.8,1.2c0.1,0.2,0.1,0.4,0.1,0.6C114.2,10.9,114.2,11.4,114.2,11.9z"/>
	<path class="st0" d="M47.5,12c0-0.6,0-1.1,0-1.7c0-0.7,0.4-1.2,1-1.5c0.6-0.3,1.2-0.2,1.8,0.2c0.4,0.3,0.6,0.8,0.6,1.3
		c0,1.1,0,2.2,0,3.2c0,1-0.8,1.7-1.7,1.7c-0.9,0-1.7-0.8-1.7-1.7C47.5,13,47.5,12.5,47.5,12z"/>
	<path class="st0" d="M73.7,12.3c0.3,0,0.7,0,1,0c0.1,0,0.2,0,0.2,0.1c0,0.5,0.1,1.1-0.1,1.6c-0.4,1.3-2.1,1.8-3.1,0.7
		c-0.4-0.4-0.5-1-0.3-1.5c0.2-0.6,0.6-0.9,1.2-1C73,12.2,73.4,12.3,73.7,12.3C73.7,12.3,73.7,12.3,73.7,12.3z"/>
	<path class="st0" d="M58.8,13.1c0,0.3,0,0.7-0.1,1c-0.4,1-1.7,1.7-2.8,1c-0.5-0.4-0.8-1.1-0.6-1.7c0.2-0.6,0.8-1.1,1.4-1.1
		c0.6,0,1.3,0,1.9,0c0.2,0,0.3,0.1,0.3,0.2C58.8,12.7,58.8,12.9,58.8,13.1z"/>
	<path class="st0" d="M98,12c0,0.5,0,1,0,1.5c0,0.8-0.7,1.7-1.7,1.7c-0.9,0-1.7-0.8-1.7-1.7c0-1,0-2,0-3c0-0.9,0.8-1.7,1.7-1.7
		c0.9,0,1.6,0.7,1.7,1.7C98,11,98,11.5,98,12z"/>
</g>
</svg>
