<?xml version="1.0" encoding="utf-8"?>
<!-- Generator: Adobe Illustrator 24.0.1, SVG Export Plug-In . SVG Version: 6.00 Build 0)  -->
<svg version="1.1" id="Layer_1" xmlns="http://www.w3.org/2000/svg" xmlns:xlink="http://www.w3.org/1999/xlink" x="0px" y="0px"
	 viewBox="0 0 120 20" style="enable-background:new 0 0 120 20;" xml:space="preserve">
<style type="text/css">
	.st0{fill:#2F99CE;}
	.st1{fill:#050604;}
</style>
<path class="st0" d="M48.6,9.9c0-1.5-1.1-2.8-3-2.8c-1.9,0-3,1.3-3,2.8v0.2c0,1.5,1.1,2.8,3,2.8c1.9,0,3-1.3,3-2.8V9.9z M45.6,14.1
	c-2.7,0-4.4-1.9-4.4-3.9V9.9c0-2,1.7-3.9,4.4-3.9c2.7,0,4.4,1.9,4.4,3.9v0.2C50,12.1,48.2,14.1,45.6,14.1z"/>
<path class="st1" d="M12.1,7.7l-1.6,3.2h3.3L12.1,7.7z M15.4,13.8l-1-1.9H10l-1,1.9H7.5l4.1-7.5h1.2l4.1,7.5H15.4z M23.3,14.1
	c-2.7,0-4-1.5-4-3.4V6.2h1.4v4.4c0,1.4,0.9,2.2,2.7,2.2c1.8,0,2.5-0.8,2.5-2.2V6.2h1.4v4.4C27.4,12.5,26.2,14.1,23.3,14.1L23.3,14.1
	z M35.3,7.4v6.4h-1.4V7.4h-3.3V6.2h8v1.2L35.3,7.4z M62.6,13.8v-6l-0.4,0.7l-3.2,5.3h-0.7l-3.1-5.3l-0.4-0.7v6h-1.4V6.2h2l3,5.2
	l0.3,0.6l0.3-0.6l2.9-5.2H64v7.5L62.6,13.8z M71.5,7.7l-1.6,3.2h3.3L71.5,7.7z M74.7,13.8l-1-1.9h-4.4l-1,1.9h-1.5l4.1-7.5h1.2
	l4.1,7.5H74.7z M82,7.4v6.4h-1.4V7.4h-3.3V6.2h8v1.2L82,7.4z M92.4,7.4v6.4h-1.4V7.4h-3.3V6.2h8v1.2L92.4,7.4z M99.1,13.8V6.9
	c0.6,0,0.8-0.3,0.8-0.7h0.6v7.5L99.1,13.8z M111.6,8.3c-0.7-0.6-1.7-1.2-3-1.2c-2,0-3.1,1.4-3.1,2.8v0.1c0,1.4,1.1,2.8,3.3,2.8
	c1.2,0,2.3-0.6,2.9-1.2l0.8,0.9c-0.8,0.8-2.2,1.5-3.9,1.5c-2.8,0-4.6-1.9-4.6-3.9V9.9c0-2,1.9-4,4.7-4c1.6,0,3,0.7,3.8,1.5
	L111.6,8.3z M46.5,8.6c0.3,0.2,0.3,0.5,0.2,0.8c0,0,0,0,0,0l-1.3,2c-0.2,0.2-0.5,0.3-0.8,0.2c-0.2-0.2-0.3-0.5-0.2-0.8l1.3-2
	C45.9,8.5,46.2,8.4,46.5,8.6L46.5,8.6z"/>
</svg>
