<?xml version="1.0" encoding="utf-8"?>
<!-- Generator: Adobe Illustrator 23.0.6, SVG Export Plug-In . SVG Version: 6.00 Build 0)  -->
<svg version="1.1"
	 id="svg3769" xmlns:cc="http://creativecommons.org/ns#" xmlns:dc="http://purl.org/dc/elements/1.1/" xmlns:inkscape="http://www.inkscape.org/namespaces/inkscape" xmlns:rdf="http://www.w3.org/1999/02/22-rdf-syntax-ns#" xmlns:sodipodi="http://sodipodi.sourceforge.net/DTD/sodipodi-0.dtd" xmlns:svg="http://www.w3.org/2000/svg"
	 xmlns="http://www.w3.org/2000/svg" xmlns:xlink="http://www.w3.org/1999/xlink" x="0px" y="0px" viewBox="0 0 68.06 20.12"
	 style="enable-background:new 0 0 68.06 20.12;" xml:space="preserve">
<style type="text/css">
	.st0{fill-rule:evenodd;clip-rule:evenodd;fill:#FFFFFF;}
	.st1{fill:#CC0000;}
</style>
<sodipodi:namedview  bordercolor="#666666" borderopacity="1.0" fit-margin-bottom="0" fit-margin-left="0" fit-margin-right="0" fit-margin-top="0" id="base" inkscape:current-layer="layer1" inkscape:cx="59.04975" inkscape:cy="9.8114313" inkscape:document-units="px" inkscape:pageopacity="0.0" inkscape:pageshadow="2" inkscape:window-height="744" inkscape:window-maximized="1" inkscape:window-width="1280" inkscape:window-x="-4" inkscape:window-y="-4" inkscape:zoom="7.6630299" pagecolor="#ffffff" showgrid="false" units="px">
	</sodipodi:namedview>
<rect x="3.65" y="3.46" class="st0" width="13.11" height="13.11"/>
<path class="st1" d="M18.56,10.01L18.56,10.01c0-1.29,0.05-2.45,1.01-4.48c0.28-0.59,0.89-1.45-0.01-2.46
	c-0.73-0.73-1.57-0.61-2.13-0.29c0.32-0.56,0.44-1.4-0.29-2.13c-1-0.9-1.87-0.29-2.46-0.01c-2.03,0.96-3.18,1.02-4.48,1.02h0
	c-1.29,0-2.45-0.05-4.48-1.02C5.14,0.37,4.27-0.24,3.27,0.66C2.54,1.39,2.66,2.23,2.98,2.79c-0.56-0.32-1.4-0.44-2.13,0.29
	c-0.9,1-0.29,1.87-0.01,2.46c0.96,2.03,1.01,3.19,1.01,4.48l0,0c0,1.29-0.05,2.45-1.01,4.48c-0.28,0.59-0.89,1.45,0.01,2.46
	c0.73,0.73,1.57,0.6,2.13,0.29c-0.32,0.56-0.44,1.39,0.29,2.13c1,0.9,1.87,0.29,2.46,0.01c2.03-0.96,3.18-1.01,4.48-1.01l0,0
	c1.3,0,2.45,0.05,4.48,1.01c0.59,0.28,1.46,0.89,2.46-0.01c0.73-0.73,0.61-1.57,0.29-2.13c0.56,0.32,1.4,0.44,2.13-0.29
	c0.9-1.01,0.29-1.87,0.01-2.46C18.61,12.46,18.56,11.31,18.56,10.01z M16.34,16.16l-4.76-3.99c0,0-0.64-0.63-1.37-0.63
	c-0.73,0-1.37,0.63-1.37,0.63l-4.76,3.99l-0.02-0.01l4-4.76c0,0,0.63-0.64,0.63-1.37c0-0.73-0.63-1.37-0.63-1.37l-4-4.76l0.02-0.02
	l4.76,4c0,0,0.64,0.63,1.37,0.63c0.73,0,1.37-0.63,1.37-0.63l4.76-3.99l0.02,0.02l-3.99,4.76c0,0-0.63,0.64-0.63,1.37
	c0,0.73,0.63,1.37,0.63,1.37l3.99,4.76L16.34,16.16z"/>
<path d="M66.48,1.32l0.17,0l0.06,3.12l-0.19,0c-0.31-1.26-1.53-2.46-3.97-2.59c-2.89-0.15-4.14,1.57-4.16,3.2
	c-0.02,2.17,1.67,2.62,4.17,3.22c1.18,0.29,5.55,0.86,5.2,5.77c-0.24,3.43-3.2,5.06-7.39,4.93c0,0-1.74-0.06-4.17-0.73
	c-0.46-0.13-0.57,0.03-0.76,0.36l-0.19,0.01l0.01-3.36l0.19,0.01c0.1,0.34,0.12,0.97,0.74,1.51c0.46,0.39,1.51,1.37,3.82,1.4
	c2.28,0.03,4.16-0.93,4.41-3.48c0.07-0.69-0.01-2.26-1.54-2.98c-1.2-0.56-4.53-0.93-6.14-2.35c0,0-1.91-1.33-1.61-3.82
	c0.43-3.52,3.36-4.39,5.99-4.45c0,0,2.36-0.02,4.24,0.47c0,0,0.46,0.12,0.85-0.02C66.36,1.48,66.43,1.38,66.48,1.32z M49.99,9.41
	c4.29,1.06,4.55,4.16,4.48,5.03c-0.19,3.87-3.48,4.32-4.8,4.32H39.57l0.01-0.2c0.73-0.1,1.28-0.5,1.28-1.79l0.06-13.34
	c0.02-1.45-0.37-1.89-1.17-1.98l-0.01-0.18h7.65c1.4,0,5.62-0.28,5.98,3.6C53.66,7.98,50.24,9.28,49.99,9.41z M51.12,14.46
	c0.08-3.76-2.68-4.75-5.53-4.91c-0.06,0-0.04-0.15,0.01-0.15c0.93-0.04,4.62-0.46,4.46-3.99c-0.15-3.43-2.75-3.5-3.7-3.52
	c-0.78-0.01-0.95-0.01-1.27,0.01c-0.55,0.02-0.69,0.06-0.69,0.66c0,0.08-0.12,6.18-0.19,10.47c-0.04,2.33-0.04,4.13-0.04,4.13
	c0.01,0.42-0.04,0.86,1.01,0.91c1.09,0.05,2.49,0.1,3.47-0.11C49.53,17.77,51.06,17.12,51.12,14.46z M30.97,1.27
	c3.64-0.02,8.43,2.48,8.42,8.72c-0.02,5.43-3.93,8.77-7.56,8.77l-9.18,0l0.01-0.19c0.52-0.09,1.09-0.41,1.19-0.76
	c0.3-1.31,0.24-13.27,0.05-15.24c-0.06-0.62-0.54-1.01-1.14-1.11l-0.01-0.19C22.75,1.27,30.16,1.27,30.97,1.27z M32.64,17.62
	c1.63-0.58,3.65-3.37,3.31-7.75c-0.32-4.24-1.94-7.57-6.24-7.88c0,0-0.81-0.06-1.5-0.06c-0.73,0-0.89-0.03-0.94,0.75
	c-0.1,1.46-0.13,12.87-0.03,14.52c0.01,0.22,0.04,0.77,0.98,0.86C29.93,18.22,31.35,18.09,32.64,17.62z"/>
</svg>
