<?xml version="1.0" encoding="utf-8"?>
<!-- Generator: Adobe Illustrator 23.0.6, SVG Export Plug-In . SVG Version: 6.00 Build 0)  -->
<svg version="1.1" id="Layer_1" xmlns="http://www.w3.org/2000/svg" xmlns:xlink="http://www.w3.org/1999/xlink" x="0px" y="0px"
	 viewBox="0 0 28.4 28.4" style="enable-background:new 0 0 28.4 28.4;" xml:space="preserve">
<style type="text/css">
	.st0{fill:#4E629A;}
</style>
<g>
	<path class="st0" d="M23.6,4.5c2.6,2.6,3.9,5.8,3.9,9.5s-1.3,6.8-4,9.5s-5.8,4-9.5,4s-6.8-1.3-9.4-4c-2.6-2.6-3.9-5.8-4-9.5
		c0-3.7,1.3-6.9,4-9.5c2.6-2.7,5.8-4,9.5-4C17.8,0.5,21,1.8,23.6,4.5z M14.1,1.5c-3.4,0-6.3,1.2-8.8,3.7S1.6,10.6,1.6,14
		c0.1,3.4,1.3,6.3,3.8,8.8s5.3,3.7,8.7,3.7s6.3-1.2,8.8-3.7s3.7-5.4,3.7-8.8S25.4,7.6,23,5.2C20.5,2.7,17.5,1.5,14.1,1.5z
		 M15.4,22.7v-8h2.7l0.4-3.1h-3.1V9.9c0-0.5,0-0.8,0.1-0.9c0,0,0-0.1,0.1-0.3c0.2-0.4,0.7-0.5,1.5-0.5h1.4V5.4
		c-0.8-0.1-1.5-0.1-2.4-0.1c-1.6,0-2.8,0.6-3.4,1.8c-0.4,0.7-0.6,1.4-0.6,2.3v2.4H9.5v3.1h2.7v8h3.2V22.7z"/>
</g>
</svg>
