<?xml version="1.0" encoding="utf-8"?>
<!-- Generator: Adobe Illustrator 23.0.6, SVG Export Plug-In . SVG Version: 6.00 Build 0)  -->
<svg version="1.1"
	 id="svg3769" xmlns:cc="http://creativecommons.org/ns#" xmlns:dc="http://purl.org/dc/elements/1.1/" xmlns:inkscape="http://www.inkscape.org/namespaces/inkscape" xmlns:rdf="http://www.w3.org/1999/02/22-rdf-syntax-ns#" xmlns:sodipodi="http://sodipodi.sourceforge.net/DTD/sodipodi-0.dtd" xmlns:svg="http://www.w3.org/2000/svg"
	 xmlns="http://www.w3.org/2000/svg" xmlns:xlink="http://www.w3.org/1999/xlink" x="0px" y="0px" viewBox="0 0 48.22 20.12"
	 style="enable-background:new 0 0 48.22 20.12;" xml:space="preserve">
<style type="text/css">
	.st0{fill:#1F70C1;}
</style>
<sodipodi:namedview  bordercolor="#666666" borderopacity="1.0" fit-margin-bottom="0" fit-margin-left="0" fit-margin-right="0" fit-margin-top="0" id="base" inkscape:current-layer="layer1" inkscape:cx="59.04975" inkscape:cy="9.8114313" inkscape:document-units="px" inkscape:pageopacity="0.0" inkscape:pageshadow="2" inkscape:window-height="744" inkscape:window-maximized="1" inkscape:window-width="1280" inkscape:window-x="-4" inkscape:window-y="-4" inkscape:zoom="7.6630299" pagecolor="#ffffff" showgrid="false" units="px">
	</sodipodi:namedview>
<path class="st0" d="M0.47,0.67v1.29h9.14V0.67H0.47z M10.91,0.67v1.29h13.03c0,0-1.33-1.29-3.09-1.29H10.91z M26.49,0.67v1.29h7.88
	l-0.47-1.29H26.49z M40.03,0.67l-0.47,1.29h7.81V0.67H40.03z M0.47,3.17v1.29h9.14V3.17H0.47z M10.91,3.17v1.28h14.54
	c0,0-0.17-0.99-0.47-1.28H10.91z M26.49,3.17v1.28h8.75l-0.43-1.28H26.49z M39.09,3.17l-0.43,1.28h8.71V3.17H39.09z M3.11,5.67v1.29
	h3.96V5.67H3.11z M13.55,5.67v1.29h3.95V5.67H13.55z M21.36,5.67v1.29h3.96c0,0,0.25-0.68,0.25-1.29H21.36z M29.13,5.67v1.29h7.01
	l-0.47-1.29H29.13z M38.24,5.67l-0.47,1.29h7.03V5.67H38.24z M3.11,8.17v1.29h3.96V8.17H3.11z M13.55,8.17v1.29h10.13
	c0,0,0.85-0.66,1.12-1.29H13.55z M29.14,8.17v1.29h3.96V8.74l0.25,0.71h7.25l0.27-0.71v0.71h3.94V8.17h-7.43l-0.4,1.09l-0.4-1.09
	L29.14,8.17z M3.11,10.67v1.29h3.96v-1.29H3.11z M13.55,10.67v1.29h11.23c-0.27-0.62-1.12-1.29-1.12-1.29H13.55z M29.14,10.67v1.29
	h3.96v-1.29H29.14z M33.82,10.67l0.48,1.29h5.44l0.44-1.29H33.82z M40.87,10.67v1.29h3.93v-1.29H40.87z M3.11,13.17v1.29h3.96v-1.29
	H3.11z M13.55,13.17v1.29h3.95v-1.29H13.55z M21.36,13.17v1.29h4.21c0-0.61-0.25-1.29-0.25-1.29H21.36z M29.13,13.17v1.29h3.96
	v-1.29H29.13z M34.71,13.17l0.46,1.29h3.65l0.47-1.29H34.71z M40.87,13.17v1.29h3.93v-1.29H40.87z M0.55,15.67v1.29h9.14v-1.29H0.55
	z M10.91,15.67v1.29h14.08c0.3-0.29,0.47-1.29,0.47-1.29H10.91z M26.57,15.67v1.29h6.52v-1.29H26.57z M35.6,15.67l0.48,1.29h1.86
	l0.45-1.29H35.6z M40.86,15.67v1.29h6.58v-1.29H40.86z M0.55,18.17v1.29h9.14v-1.29H0.55z M10.91,18.17v1.28h9.94
	c1.76,0,3.09-1.28,3.09-1.28H10.91z M26.57,18.17v1.29h6.52v-1.29H26.57z M36.51,18.17l0.46,1.28l0.08,0l0.47-1.28L36.51,18.17z
	 M40.86,18.17v1.29h6.59v-1.29H40.86z"/>
</svg>
