<?xml version="1.0" encoding="utf-8"?>
<!-- Generator: Adobe Illustrator 23.0.6, SVG Export Plug-In . SVG Version: 6.00 Build 0)  -->
<svg version="1.1" id="Layer_1" xmlns="http://www.w3.org/2000/svg" xmlns:xlink="http://www.w3.org/1999/xlink" x="0px" y="0px"
	 viewBox="0 0 28.4 28.4" style="enable-background:new 0 0 28.4 28.4;" xml:space="preserve">
<style type="text/css">
	.st0{fill:#4E629A;}
</style>
<g>
	<path class="st0" d="M23.5,4.4c2.6,2.6,3.9,5.8,3.9,9.5s-1.3,6.8-4,9.4s-5.8,3.9-9.4,3.9c-3.7,0-6.8-1.3-9.4-3.9s-3.9-5.8-4-9.4
		c0-3.7,1.3-6.8,3.9-9.5c2.6-2.6,5.8-4,9.5-4C17.7,0.5,20.8,1.8,23.5,4.4z M14,1.5c-3.4,0-6.3,1.2-8.8,3.7S1.5,10.6,1.5,14
		c0.1,3.4,1.3,6.3,3.7,8.7s5.3,3.7,8.7,3.7s6.3-1.2,8.8-3.7c2.4-2.4,3.7-5.4,3.7-8.7c0-3.4-1.2-6.3-3.6-8.8S17.4,1.5,14,1.5z
		 M8.3,9.9c0.5,0,1-0.2,1.3-0.5s0.5-0.7,0.5-1.1c0-0.5-0.2-0.9-0.5-1.2C9.3,6.8,8.9,6.7,8.4,6.7c-0.6,0-1,0.2-1.3,0.5
		C6.7,7.4,6.6,7.8,6.6,8.3s0.2,0.8,0.5,1.1C7.4,9.8,7.8,9.9,8.3,9.9z M9.9,11.3H6.7v9.5h3.2V11.3z M21.4,15.3c0-1.5-0.3-2.6-1-3.3
		c-0.7-0.7-1.5-1-2.6-1c-0.9,0-1.5,0.2-1.9,0.5c-0.4,0.4-0.7,0.7-0.9,1v-1.4h-3.2v5.1v4.4H15v-5.3c0-0.1,0-0.3,0-0.4s0-0.3,0.1-0.4
		c0.1-0.3,0.3-0.6,0.6-0.8s0.6-0.4,1.1-0.4c0.6,0,1,0.2,1.2,0.6c0.2,0.4,0.4,0.9,0.4,1.6v5.1h3.2v-5.3H21.4z M14.8,12.7
		C14.8,12.6,14.9,12.6,14.8,12.7L14.8,12.7L14.8,12.7z"/>
</g>
</svg>
