<?xml version="1.0" encoding="utf-8"?>
<!-- Generator: Adobe Illustrator 23.0.6, SVG Export Plug-In . SVG Version: 6.00 Build 0)  -->
<svg version="1.1"
	 id="svg3769" xmlns:cc="http://creativecommons.org/ns#" xmlns:dc="http://purl.org/dc/elements/1.1/" xmlns:inkscape="http://www.inkscape.org/namespaces/inkscape" xmlns:rdf="http://www.w3.org/1999/02/22-rdf-syntax-ns#" xmlns:sodipodi="http://sodipodi.sourceforge.net/DTD/sodipodi-0.dtd" xmlns:svg="http://www.w3.org/2000/svg"
	 xmlns="http://www.w3.org/2000/svg" xmlns:xlink="http://www.w3.org/1999/xlink" x="0px" y="0px" viewBox="0 0 94.57 20.12"
	 style="enable-background:new 0 0 94.57 20.12;" xml:space="preserve">
<style type="text/css">
	.st0{fill:#737373;}
	.st1{fill:#F25022;}
	.st2{fill:#7FBA00;}
	.st3{fill:#00A4EF;}
	.st4{fill:#FFB900;}
</style>
<sodipodi:namedview  bordercolor="#666666" borderopacity="1.0" fit-margin-bottom="0" fit-margin-left="0" fit-margin-right="0" fit-margin-top="0" id="base" inkscape:current-layer="layer1" inkscape:cx="59.04975" inkscape:cy="9.8114313" inkscape:document-units="px" inkscape:pageopacity="0.0" inkscape:pageshadow="2" inkscape:window-height="744" inkscape:window-maximized="1" inkscape:window-width="1280" inkscape:window-x="-4" inkscape:window-y="-4" inkscape:zoom="7.6630299" pagecolor="#ffffff" showgrid="false" units="px">
	</sodipodi:namedview>
<g transform="matrix(.173865 0 0 .173865 7.501548 18.78565)">
	<path class="st0" d="M148.14-41.39l-3.23,9.15h-0.27c-0.54-2.06-1.53-5.2-3.14-8.97l-17.32-43.51h-16.96v69.35h11.21v-42.8
		l-0.09-9.51c-0.09-1.88-0.27-3.32-0.36-4.4h0.27c0.54,2.69,1.17,4.67,1.61,5.92l20.81,50.6h7.9l20.64-51.05
		c0.45-1.17,0.9-3.5,1.35-5.47h0.27L170.3-59.6v43.96h11.93V-84.9H165.9L148.14-41.39z M193.53-65.34h11.66v49.7h-11.66V-65.34z
		 M199.46-86.34c-1.97,0-3.59,0.72-4.93,1.97c-1.35,1.26-2.06,2.87-2.06,4.84c-0.03,1.81,0.73,3.54,2.06,4.76
		c1.35,1.26,2.96,1.88,4.93,1.88s3.68-0.72,4.93-1.88c1.34-1.22,2.09-2.95,2.06-4.76c0-1.88-0.72-3.5-2.06-4.84
		C203.22-85.62,201.52-86.34,199.46-86.34 M246.56-65.79c-2.15-0.45-4.4-0.72-6.55-0.72c-5.29,0-10.14,1.17-14.18,3.5
		c-4.04,2.33-7.27,5.56-9.33,9.6c-2.15,4.13-3.23,8.88-3.23,14.36c0,4.76,1.08,8.97,3.14,12.83c2.06,3.77,4.93,6.82,8.79,8.88
		c3.68,2.06,7.99,3.14,12.83,3.14c5.56,0,10.32-1.17,14.09-3.32l0.09-0.09v-10.77l-0.45,0.36c-1.7,1.26-3.68,2.33-5.65,2.96
		c-2.06,0.72-3.95,1.08-5.56,1.08c-4.67,0-8.34-1.35-10.95-4.31c-2.69-2.87-4.04-6.82-4.04-11.75c0-5.11,1.35-9.15,4.13-12.11
		c2.78-2.96,6.46-4.49,10.95-4.49c3.77,0,7.63,1.26,11.13,3.77l0.45,0.36v-11.39l-0.09-0.09C250.6-64.62,248.89-65.34,246.56-65.79
		 M285.05-66.15c-2.87,0-5.56,0.9-7.9,2.78c-1.97,1.61-3.32,3.95-4.49,6.73h-0.09v-8.7h-11.66v49.7h11.66v-25.39
		c0-4.31,0.9-7.9,2.87-10.5c1.97-2.69,4.49-4.04,7.54-4.04c1.08,0,2.15,0.27,3.5,0.45c1.26,0.36,2.15,0.72,2.78,1.17l0.45,0.36
		v-11.66l-0.27-0.09C288.64-65.88,287.02-66.15,285.05-66.15 M316.81-66.42c-8.16,0-14.71,2.42-19.29,7.18
		c-4.67,4.76-6.91,11.3-6.91,19.56c0,7.72,2.33,14,6.82,18.57c4.49,4.49,10.59,6.82,18.21,6.82c7.99,0,14.36-2.42,18.93-7.27
		c4.67-4.84,6.91-11.3,6.91-19.29c0-7.9-2.15-14.18-6.55-18.75C330.72-64.17,324.53-66.42,316.81-66.42 M326.14-28.2
		c-2.15,2.78-5.56,4.13-9.78,4.13c-4.22,0-7.63-1.35-10.05-4.31c-2.42-2.78-3.59-6.82-3.59-11.93c0-5.29,1.26-9.33,3.59-12.2
		c2.42-2.87,5.74-4.31,9.96-4.31c4.13,0,7.36,1.35,9.69,4.13c2.33,2.78,3.59,6.82,3.59,12.11C329.37-35.19,328.38-30.98,326.14-28.2
		 M367.5-44.71c-3.68-1.53-6.01-2.69-7.09-3.68c-0.9-0.9-1.35-2.15-1.35-3.77c0-1.35,0.54-2.69,1.88-3.59s2.87-1.35,5.11-1.35
		c1.97,0,4.04,0.36,6.01,0.9c1.97,0.54,3.77,1.35,5.2,2.42l0.45,0.36v-10.95l-0.27-0.09c-1.35-0.54-3.14-1.08-5.29-1.53
		c-2.15-0.36-4.13-0.54-5.74-0.54c-5.56,0-10.14,1.35-13.73,4.31c-3.59,2.78-5.29,6.55-5.29,10.95c0,2.33,0.36,4.4,1.17,6.1
		c0.81,1.7,1.97,3.32,3.59,4.67c1.61,1.26,3.95,2.69,7.18,4.04c2.69,1.17,4.76,2.06,6.01,2.78s2.06,1.53,2.69,2.15
		c0.45,0.72,0.72,1.61,0.72,2.78c0,3.32-2.51,4.93-7.63,4.93c-1.97,0-4.04-0.36-6.46-1.17c-2.42-0.81-4.67-1.97-6.55-3.32
		l-0.45-0.36v11.39l0.27,0.09c1.7,0.81,3.77,1.35,6.28,1.97c2.51,0.45,4.76,0.81,6.73,0.81c6.01,0,10.95-1.35,14.44-4.31
		c3.59-2.87,5.47-6.55,5.47-11.3c0-3.32-0.9-6.28-2.87-8.52C375.4-40.67,372.17-42.91,367.5-44.71 M411.64-66.42
		c-8.16,0-14.71,2.42-19.29,7.18s-6.91,11.3-6.91,19.56c0,7.72,2.33,14,6.82,18.57c4.49,4.49,10.59,6.82,18.21,6.82
		c7.99,0,14.36-2.42,18.93-7.27c4.67-4.84,6.91-11.3,6.91-19.29c0-7.9-2.15-14.18-6.55-18.75
		C425.55-64.17,419.36-66.42,411.64-66.42 M420.88-28.2c-2.15,2.78-5.56,4.13-9.78,4.13c-4.31,0-7.63-1.35-10.05-4.31
		c-2.42-2.78-3.59-6.82-3.59-11.93c0-5.29,1.26-9.33,3.59-12.2c2.42-2.87,5.74-4.31,9.96-4.31c4.04,0,7.36,1.35,9.69,4.13
		c2.33,2.78,3.59,6.82,3.59,12.11C424.29-35.19,423.13-30.98,420.88-28.2 M498.67-55.74v-9.6h-11.75v-14.71l-0.36,0.09l-11.13,3.32
		l-0.27,0.09v11.21h-17.59v-6.28c0-2.87,0.72-5.11,1.97-6.55c1.26-1.44,3.14-2.15,5.47-2.15c1.61,0,3.32,0.36,5.2,1.17l0.45,0.27
		v-10.14l-0.27-0.09c-1.61-0.54-3.77-0.9-6.55-0.9c-3.5,0-6.55,0.81-9.33,2.15c-2.78,1.53-4.84,3.59-6.37,6.37
		c-1.53,2.69-2.33,5.74-2.33,9.24v6.91h-8.16v9.51h8.16v40.19h11.75v-40.1h17.59v25.57c0,10.5,4.93,15.79,14.8,15.79
		c1.61,0,3.32-0.27,4.93-0.54c1.7-0.36,2.96-0.81,3.68-1.17l0.09-0.09v-9.6l-0.45,0.36c-0.72,0.45-1.35,0.81-2.42,1.08
		c-0.9,0.27-1.7,0.36-2.33,0.36c-2.33,0-3.95-0.54-5.11-1.88c-1.08-1.26-1.61-3.32-1.61-6.37v-23.51H498.67z"/>
	<path class="st1" d="M-43.15-108.05h55v55h-55V-108.05z"/>
	<path class="st2" d="M17.59-108.05h55v55h-55V-108.05z"/>
	<path class="st3" d="M-43.15-47.31h55v55h-55V-47.31z"/>
	<path class="st4" d="M17.59-47.31h55v55h-55V-47.31z"/>
</g>
</svg>
