<?xml version="1.0" encoding="utf-8"?>
<!-- Generator: Adobe Illustrator 23.0.6, SVG Export Plug-In . SVG Version: 6.00 Build 0)  -->
<svg version="1.1"
	 id="svg3769" xmlns:cc="http://creativecommons.org/ns#" xmlns:dc="http://purl.org/dc/elements/1.1/" xmlns:inkscape="http://www.inkscape.org/namespaces/inkscape" xmlns:rdf="http://www.w3.org/1999/02/22-rdf-syntax-ns#" xmlns:sodipodi="http://sodipodi.sourceforge.net/DTD/sodipodi-0.dtd" xmlns:svg="http://www.w3.org/2000/svg"
	 xmlns="http://www.w3.org/2000/svg" xmlns:xlink="http://www.w3.org/1999/xlink" x="0px" y="0px" viewBox="0 0 118.6 20.12"
	 style="enable-background:new 0 0 118.6 20.12;" xml:space="preserve">
<style type="text/css">
	.st0{fill:#046FFE;}
	.st1{fill:#04C3D5;}
	.st2{fill:#03A1FE;}
	.st3{fill:#040404;}
	.st4{fill:#050505;}
	.st5{fill:#080808;}
	.st6{fill:#060606;}
	.st7{fill:#020202;}
	.st8{fill:#070707;}
	.st9{fill:#0A0A0A;}
	.st10{fill:#F5F5F5;}
</style>
<sodipodi:namedview  bordercolor="#666666" borderopacity="1.0" fit-margin-bottom="0" fit-margin-left="0" fit-margin-right="0" fit-margin-top="0" id="base" inkscape:current-layer="layer1" inkscape:cx="59.04975" inkscape:cy="9.8114313" inkscape:document-units="px" inkscape:pageopacity="0.0" inkscape:pageshadow="2" inkscape:window-height="744" inkscape:window-maximized="1" inkscape:window-width="1280" inkscape:window-x="-4" inkscape:window-y="-4" inkscape:zoom="7.6630299" pagecolor="#ffffff" showgrid="false" units="px">
	</sodipodi:namedview>
<g>
	<path class="st0" d="M7.13,7.74c-0.08-0.02-0.32,0.02-0.4,0C6.14,7.59,5.54,7.7,4.94,7.71C5.19,5,7.52,2.32,10.42,1.46
		C14.09,0.39,18.1,2.18,19.76,6c0,0-0.51-0.04-1.13,0.1c-0.42,0.09-1.09,0.35-1.09,0.35s-0.31-0.48-0.91-1.2
		c-2.69-3.23-7.93-2.12-9.29,1.88C7.26,7.33,7.13,7.74,7.13,7.74z"/>
	<path class="st1" d="M6.42,17.85c-0.38,0.34-0.67,0.75-1.02,1.12c-0.12,0.12-0.39,0.08-0.55,0.06c-2.35-0.31-4.53-2.64-4.69-5.06
		c-0.2-3.07,1.5-5.38,4.47-6.19C5.28,7.6,6.19,7.54,6.83,7.67c1.95,0.41,3.28,1.77,4.68,3.01c0.19,0.17,0.19,0.28,0.02,0.48
		c-1.19,1.42-1.18,1.42-2.56,0.23c-0.3-0.26-0.6-0.53-0.92-0.78C6.8,9.64,5.18,9.58,3.89,10.47c-1.26,0.86-1.82,2.41-1.41,3.88
		c0.41,1.46,1.75,2.5,3.31,2.58c0.09,0,1.64,0.01,1.73,0.01C8,16.92,6.78,17.53,6.42,17.85z"/>
	<path class="st2" d="M14.7,9.76c1.38-1.34,2.92-2.23,4.94-2.12c2.71,0.15,5.12,2.43,5.33,5.12c0.23,2.99-1.62,5.61-4.38,6.2
		c-0.44,0.09-0.88,0.14-1.33,0.14c-4.71,0-9.43,0.07-14.14-0.04C5.79,18.32,12.22,12.18,14.7,9.76z M10.56,16.93
		c0.11,0.01,5.88,0,8.6-0.02c1.68-0.01,3.06-1.04,3.49-2.52c0.43-1.5-0.15-3.06-1.45-3.93c-1.37-0.91-2.94-0.85-4.26,0.3
		c-2.17,1.89-4.17,3.97-6.23,5.98C10.69,16.77,10.61,16.84,10.56,16.93z"/>
	<path class="st3" d="M117.44,14.64c-1.88,1.33-3.79,1.25-5.03-0.13c-1.27-1.41-1.25-4.05,0.04-5.49c1.17-1.3,3.18-1.41,4.9-0.18
		c0-0.99,0.03-1.92-0.01-2.83c-0.02-0.49,0.1-0.64,0.61-0.63c0.48,0.01,0.63,0.1,0.62,0.62c-0.03,2.9-0.01,5.8-0.03,8.71
		c0,0.29,0.29,0.77-0.43,0.78C117.52,15.5,117.29,15.33,117.44,14.64z M117.34,11.8c0-1.92-1.31-3.14-2.98-2.77
		c-1.18,0.26-2,1.76-1.78,3.22c0.19,1.23,0.87,2.05,1.87,2.26C116.07,14.85,117.33,13.67,117.34,11.8z"/>
	<path class="st4" d="M90.56,7.69c0.01,0.05-0.05,0.09-0.09,0.06c-2.69-1.79-5.04-1.85-6.41-0.23c-1.31,1.56-1.25,4.5,0.14,5.94
		c1.54,1.59,3.97,1.41,6.41-0.47c0.14,1.63,0.26,1.4-1,2.09c-3.17,1.72-7.49,0.21-7.54-4.5c-0.02-2.18,0.67-4.04,2.8-4.96
		c1.91-0.82,3.75-0.48,5.42,0.75C90.78,6.7,90.48,7.19,90.56,7.69z"/>
	<path class="st4" d="M64.74,13.43c0.18,1.16,0.11,1.3-0.83,1.76c-1.7,0.84-3.77,0.41-4.77-0.98c-1.07-1.5-0.95-4.05,0.3-5.28
		c1-0.98,2.22-1.21,3.53-0.79c1.26,0.41,1.95,1.34,2.11,2.67c0.15,1.32,0.16,1.32-1.18,1.32c-1.25,0-2.5,0.04-3.75-0.02
		c-0.63-0.03-0.65,0.24-0.53,0.71c0.36,1.41,1.65,2.13,3.12,1.76C63.5,14.39,64.14,13.96,64.74,13.43z M64.05,11.15
		c-0.13-1.37-0.77-2.04-2.03-2.18c-1.09-0.12-2.07,0.54-2.38,1.61c-0.06,0.2-0.3,0.56,0.21,0.56
		C61.25,11.16,62.65,11.15,64.05,11.15z"/>
	<path class="st4" d="M41.42,13.42c0.17,1.19,0.1,1.33-0.9,1.8c-1.71,0.8-3.72,0.37-4.71-1c-1.07-1.5-0.94-4.05,0.31-5.28
		c0.99-0.98,2.22-1.21,3.53-0.79c1.24,0.4,1.93,1.31,2.1,2.6c0.19,1.38,0.19,1.38-1.18,1.38c-1.27,0-2.55,0.03-3.82-0.01
		c-0.56-0.02-0.57,0.24-0.48,0.64c0.32,1.44,1.64,2.2,3.13,1.83C40.19,14.38,40.83,13.96,41.42,13.42z M38.46,11.15
		c0.6,0,1.2-0.02,1.81,0.01c0.41,0.02,0.56-0.07,0.44-0.52c-0.27-1.06-1.04-1.68-2.19-1.69c-1.06-0.01-2.01,0.73-2.25,1.75
		c-0.09,0.36,0.02,0.47,0.39,0.46C37.26,11.13,37.86,11.15,38.46,11.15z"/>
	<path class="st4" d="M95.2,11.83c-0.02-2.11,1.01-3.45,2.9-3.8c2.08-0.38,3.96,1.06,4.11,3.17c0.04,0.51,0.05,1.04-0.04,1.53
		c-0.39,2-1.86,3.05-3.94,2.87c-1.68-0.14-2.95-1.59-3.02-3.44C95.19,12.05,95.2,11.94,95.2,11.83z M101.14,11.82
		c-0.01-1.35-0.64-2.33-1.71-2.65c-1.39-0.41-2.72,0.29-3.11,1.64c-0.47,1.64,0.26,3.27,1.64,3.69
		C99.7,15.03,101.15,13.81,101.14,11.82z"/>
	<path class="st5" d="M44.33,8.84c0.98-0.79,1.96-1.08,3.09-0.79c1.19,0.31,2.07,1.32,2.1,2.55c0.03,1.5-0.01,2.99,0.02,4.49
		c0.01,0.51-0.31,0.37-0.57,0.38c-0.27,0.01-0.57,0.1-0.56-0.39c0.03-1.32,0.01-2.63,0.01-3.95c0-1.2-0.67-2.01-1.71-2.09
		c-1.28-0.1-2.13,0.52-2.3,1.79c-0.18,1.33-0.04,2.67-0.06,4.01c-0.01,0.38,0.03,0.67-0.53,0.65c-0.51-0.01-0.57-0.2-0.56-0.63
		c0.02-2.01,0-4.02,0.02-6.03c0-0.25-0.22-0.68,0.35-0.66C44,8.2,44.51,8.03,44.33,8.84z"/>
	<path class="st6" d="M67.6,8.86c0.97-0.77,1.9-1.07,2.99-0.82c1.14,0.26,2.08,1.18,2.13,2.35c0.07,1.58,0.03,3.17,0.05,4.75
		c0.01,0.53-0.38,0.29-0.62,0.33c-0.34,0.06-0.47-0.06-0.46-0.43c0.02-1.34,0.03-2.68,0-4.02c-0.04-1.62-1.56-2.51-2.98-1.76
		c-0.78,0.41-1.06,1.13-1.07,1.95c-0.03,1.27-0.03,2.55,0.01,3.82c0.02,0.5-0.25,0.45-0.57,0.46c-0.35,0.01-0.56,0-0.55-0.47
		c0.03-2.05,0-4.11,0.02-6.16c0-0.24-0.25-0.7,0.34-0.66C67.25,8.21,67.83,7.94,67.6,8.86z"/>
	<path class="st6" d="M30.99,10.97c0-1.29-0.02-2.59,0.01-3.88c0.01-0.45-0.08-0.63-0.58-0.6c-0.8,0.04-1.61-0.01-2.41,0.02
		C27.61,6.52,27.47,6.42,27.5,6c0.02-0.35,0.01-0.57,0.49-0.56c2.39,0.03,4.77,0.03,7.16,0c0.47,0,0.48,0.2,0.49,0.56
		c0,0.35-0.05,0.53-0.46,0.51c-0.82-0.03-1.65,0.02-2.48-0.02c-0.48-0.02-0.59,0.13-0.59,0.6c0.02,2.59,0,5.18,0.02,7.76
		c0,0.47-0.07,0.64-0.6,0.64c-0.54,0-0.54-0.24-0.53-0.64C31,13.56,30.99,12.26,30.99,10.97z"/>
	<path class="st7" d="M109.05,14.62c-0.95,1-1.94,1.13-3,0.99c-1.3-0.16-2.35-1.25-2.39-2.57c-0.04-1.47,0-2.95-0.04-4.42
		c-0.01-0.44,0.19-0.45,0.52-0.45c0.33,0,0.53,0.01,0.52,0.45c-0.03,1.27-0.02,2.54-0.01,3.82c0.01,1.26,0.71,2.06,1.88,2.18
		c1.02,0.1,1.96-0.61,2.21-1.73c0.3-1.34,0.11-2.71,0.13-4.07c0.01-0.53,0.15-0.67,0.66-0.65c0.4,0.02,0.46,0.15,0.46,0.51
		c-0.01,2.03,0,4.06-0.02,6.09c0,0.25,0.28,0.69-0.36,0.72C109.1,15.52,108.91,15.35,109.05,14.62z"/>
	<path class="st8" d="M57.13,9.79c-2.08-1.05-3.58-1-4.5,0.16c-0.8,1-0.78,2.78,0.03,3.74c0.97,1.15,2.35,1.14,4.54-0.03
		c0.12,1.31-0.28,1.73-1.89,1.95c-1.69,0.22-3.17-0.37-3.85-1.69c-0.81-1.54-0.78-3.1,0.22-4.56c0.93-1.35,2.8-1.73,4.66-1.03
		C57.28,8.68,57.3,8.71,57.13,9.79z"/>
	<path class="st5" d="M77.99,14.16c0.05-0.01,0.1,0.03,0.1,0.08c0,0.2-0.02,0.38,0.01,0.54c0.06,0.4-0.11,0.57-0.49,0.62
		c-0.33,0.04-0.65,0.16-0.98,0.18c-0.83,0.04-1.38-0.51-1.39-1.37c-0.01-1.47-0.02-2.95,0.01-4.42c0.01-0.47-0.07-0.72-0.61-0.63
		c-0.39,0.07-0.64,0.02-0.64-0.52c0-0.57,0.3-0.56,0.67-0.51C75.16,8.2,75.3,8,75.24,7.54c-0.03-0.24,0.03-0.5-0.01-0.74
		c-0.09-0.55,0.16-0.64,0.66-0.65c0.47,0,0.53,0.18,0.53,0.58c-0.01,1.43,0.01,1.46,1.46,1.43c0.52-0.01,0.71,0.12,0.66,0.65
		c-0.03,0.3-0.14,0.37-0.41,0.36c-0.45-0.02-0.89,0.01-1.34-0.01c-0.3-0.01-0.38,0.11-0.38,0.39c0.01,1.5,0.01,2.99,0,4.49
		c0,0.36,0.15,0.47,0.51,0.37C77.25,14.32,77.59,14.25,77.99,14.16z"/>
	<path class="st9" d="M92.31,10.49c0-1.49,0.03-2.99-0.01-4.48c-0.01-0.51,0.22-0.52,0.59-0.51c0.33,0.01,0.62-0.07,0.62,0.48
		c-0.03,3.01-0.03,6.02,0,9.03c0.01,0.56-0.29,0.46-0.62,0.48c-0.38,0.02-0.61-0.01-0.59-0.51C92.33,13.47,92.31,11.98,92.31,10.49z
		"/>
	<path class="st10" d="M64.05,11.15c-1.4,0-2.8,0.01-4.2,0c-0.52,0-0.27-0.36-0.21-0.56c0.31-1.07,1.29-1.73,2.38-1.61
		C63.28,9.11,63.93,9.78,64.05,11.15z"/>
</g>
</svg>
