<?xml version="1.0" encoding="utf-8"?>
<!-- Generator: Adobe Illustrator 23.0.6, SVG Export Plug-In . SVG Version: 6.00 Build 0)  -->
<svg version="1.1"
	 id="svg3769" xmlns:cc="http://creativecommons.org/ns#" xmlns:dc="http://purl.org/dc/elements/1.1/" xmlns:inkscape="http://www.inkscape.org/namespaces/inkscape" xmlns:rdf="http://www.w3.org/1999/02/22-rdf-syntax-ns#" xmlns:sodipodi="http://sodipodi.sourceforge.net/DTD/sodipodi-0.dtd" xmlns:svg="http://www.w3.org/2000/svg"
	 xmlns="http://www.w3.org/2000/svg" xmlns:xlink="http://www.w3.org/1999/xlink" x="0px" y="0px" viewBox="0 0 104.92 20.12"
	 style="enable-background:new 0 0 104.92 20.12;" xml:space="preserve">
<style type="text/css">
	.st0{fill:#E70641;}
	.st1{fill:#231F20;}
</style>
<sodipodi:namedview  bordercolor="#666666" borderopacity="1.0" fit-margin-bottom="0" fit-margin-left="0" fit-margin-right="0" fit-margin-top="0" id="base" inkscape:current-layer="layer1" inkscape:cx="59.04975" inkscape:cy="9.8114313" inkscape:document-units="px" inkscape:pageopacity="0.0" inkscape:pageshadow="2" inkscape:window-height="744" inkscape:window-maximized="1" inkscape:window-width="1280" inkscape:window-x="-4" inkscape:window-y="-4" inkscape:zoom="7.6630299" pagecolor="#ffffff" showgrid="false" units="px">
	</sodipodi:namedview>
<g>
	<g>
		<path class="st0" d="M11.22,0.45c5.7,0.48,11.88,3.34,15.46,7.39c4.55,5.21,3.01,10.41-3.5,11.63S7.73,17.45,3.17,12.24
			c-3.5-3.98-3.41-7.96-0.24-10.16l18.06,13.33L11.22,0.45z"/>
	</g>
	<g>
		<g>
			<path class="st1" d="M100.35,19.55l-2.29-9.11c-0.33-1.06-0.48-2.2-0.66-3.25h-0.09c-0.16,1.14-0.24,2.2-0.57,3.34l-2.25,9.02
				h-3.9l5.28-18.94h3.1l5.44,18.94H100.35z"/>
			<path class="st1" d="M40.41,0.52l2.29,9.11c0.33,1.06,0.48,2.2,0.66,3.25h0.09c0.16-1.14,0.24-2.2,0.57-3.34l2.29-9.02h3.88
				l-5.21,19.03h-3.1L36.41,0.52H40.41z"/>
			<path class="st1" d="M56.78,0.52v19.03h-3.74V0.52H56.78z"/>
			<path class="st1" d="M78,0.52l1.87,11.22l0,0l1.54-11.22h5.04l1.96,18.96h-3.83l-0.9-13.66h-0.09l-0.57,4.71l-1.63,8.95h-2.93
				l-1.85-9.11l-0.66-4.22V5.82h-0.09l-0.48,13.75h-4.07l1.63-18.96h5.04V0.52H78z"/>
			<path class="st1" d="M66.12,0.52c-0.66,0.48-1.14,1.21-1.47,2.03c-0.97,2.35,0.09,4.16,0.97,5.78c0.16,0.24,0.24,0.48,0.4,0.73
				c2.03,3.5,2.84,6.03,1.3,9.68c-0.09,0.24-0.33,0.73-0.33,0.73h-4.55c0.48-0.4,1.06-1.06,1.39-1.78c1.06-2.53-0.16-4.8-1.39-6.99
				c-1.39-2.68-2.93-5.37-1.3-9.19c0.16-0.33,0.48-0.97,0.48-0.97L66.12,0.52z"/>
		</g>
	</g>
</g>
</svg>
